<?xml version="1.0" encoding="UTF-8" standalone="no"?>
<!DOCTYPE svg PUBLIC "-//W3C//DTD SVG 1.1//EN" "http://www.w3.org/Graphics/SVG/1.1/DTD/svg11.dtd">
<svg width="100%" height="100%" viewBox="0 0 720 720" version="1.1" xmlns="http://www.w3.org/2000/svg" xmlns:xlink="http://www.w3.org/1999/xlink" xml:space="preserve" xmlns:serif="http://www.serif.com/" style="fill-rule:evenodd;clip-rule:evenodd;stroke-linecap:round;stroke-linejoin:round;stroke-miterlimit:1.5;">
    <g transform="matrix(1,0,0,0.77169,-62.0774,184.776)">
        <path d="M611.405,336.75C611.405,306.533 592.473,282 569.155,282L275,282C251.682,282 232.75,306.533 232.75,336.75L232.75,446.25C232.75,476.467 251.682,501 275,501L569.155,501C592.473,501 611.405,476.467 611.405,446.25L611.405,336.75Z" style="fill:none;stroke:rgb(32,32,32);stroke-width:50.38px;"/>
    </g>
    <g transform="matrix(1,0,0,0.77169,-62.0774,-69.0088)">
        <path d="M611.405,336.75C611.405,306.533 592.473,282 569.155,282L275,282C251.682,282 232.75,306.533 232.75,336.75L232.75,446.25C232.75,476.467 251.682,501 275,501L569.155,501C592.473,501 611.405,476.467 611.405,446.25L611.405,336.75Z" style="fill:none;stroke:rgb(32,32,32);stroke-width:50.38px;"/>
    </g>
</svg>
