<?xml version="1.0" encoding="UTF-8" standalone="no"?>
<!DOCTYPE svg PUBLIC "-//W3C//DTD SVG 1.1//EN" "http://www.w3.org/Graphics/SVG/1.1/DTD/svg11.dtd">
<svg width="100%" height="100%" viewBox="0 0 1260 286" version="1.1" xmlns="http://www.w3.org/2000/svg" xmlns:xlink="http://www.w3.org/1999/xlink" xml:space="preserve" xmlns:serif="http://www.serif.com/" style="fill-rule:evenodd;clip-rule:evenodd;stroke-linejoin:round;stroke-miterlimit:1.41421;">
    <g>
        <g transform="matrix(1,0,0,1,-6.9985,-4)">
            <path d="M110.011,130.415C116.645,130.415 121.897,129.632 125.766,128.065C129.636,126.499 132.861,124.426 135.441,121.846C137.837,119.266 139.725,116.364 141.108,113.139C142.49,109.914 143.181,106.459 143.181,102.773C143.181,99.088 142.49,95.632 141.108,92.408C139.725,89.183 137.837,86.28 135.441,83.7C132.861,81.121 129.636,79.047 125.766,77.481C121.897,75.915 116.645,75.132 110.011,75.132L65.784,75.132L65.784,130.415L110.011,130.415ZM65.784,156.675L65.784,242.364L38.142,242.364C38.142,242.364 38.142,109.313 38.142,63.872C38.142,55.588 44.858,48.872 53.142,48.872C74.573,48.872 111.393,48.872 111.393,48.872C120.791,48.872 128.669,49.978 135.026,52.189C141.384,54.4 146.958,57.533 151.75,61.587C157.647,66.563 162.3,72.598 165.709,79.692C169.118,86.787 170.822,94.481 170.822,102.773C170.822,111.066 169.118,118.759 165.709,125.854C162.3,132.949 157.647,138.984 151.75,143.959C146.958,148.014 141.384,151.146 135.026,153.358C128.669,155.569 120.791,156.675 111.393,156.675L65.784,156.675Z" style="fill:white;fill-rule:nonzero;"/>
        </g>
        <g transform="matrix(1,0,0,1,-6.9985,-4)">
            <path d="M177.733,177.406C177.733,167.823 179.437,158.886 182.847,150.593C186.256,142.301 190.955,135.114 196.944,129.033C202.933,122.952 210.028,118.207 218.228,114.797C226.428,111.388 235.32,109.684 244.902,109.684C254.485,109.684 263.376,111.388 271.576,114.797C279.777,118.207 286.872,122.952 292.861,129.033C298.85,135.114 303.549,142.301 306.958,150.593C310.367,158.886 312.072,167.823 312.072,177.406C312.072,187.173 310.367,196.156 306.958,204.357C303.549,212.557 298.85,219.698 292.861,225.779C286.872,231.86 279.777,236.605 271.576,240.014C263.376,243.424 254.485,245.128 244.902,245.128C235.32,245.128 226.428,243.424 218.228,240.014C210.028,236.605 202.933,231.86 196.944,225.779C190.955,219.698 186.256,212.557 182.847,204.357C179.437,196.156 177.733,187.173 177.733,177.406ZM203.992,177.406C203.992,183.303 205.006,188.877 207.033,194.129C209.06,199.381 211.87,203.942 215.464,207.812C219.057,211.682 223.342,214.722 228.317,216.934C233.293,219.145 238.821,220.251 244.902,220.251C250.983,220.251 256.512,219.145 261.487,216.934C266.463,214.722 270.747,211.682 274.341,207.812C277.934,203.942 280.744,199.381 282.771,194.129C284.798,188.877 285.812,183.303 285.812,177.406C285.812,171.509 284.798,165.935 282.771,160.683C280.744,155.431 277.934,150.87 274.341,147C270.747,143.13 266.463,140.09 261.487,137.878C256.512,135.667 250.983,134.561 244.902,134.561C238.821,134.561 233.293,135.667 228.317,137.878C223.342,140.09 219.057,143.13 215.464,147C211.87,150.87 209.06,155.431 207.033,160.683C205.006,165.935 203.992,171.509 203.992,177.406Z" style="fill:white;fill-rule:nonzero;"/>
        </g>
        <g transform="matrix(1,0,0,1,-6.9985,-4)">
            <path d="M349.111,207.812C361.458,217.394 374.265,222.185 387.533,222.185C393.246,222.185 398.452,220.757 403.151,217.901C407.85,215.045 410.2,211.037 410.2,205.877C410.2,202.191 408.956,199.243 406.468,197.032C403.98,194.82 400.802,193.023 396.932,191.641C393.062,190.259 388.731,189.015 383.94,187.91C379.149,186.804 374.358,185.422 369.566,183.763C365.697,182.474 361.965,180.861 358.371,178.926C354.778,176.991 351.599,174.642 348.835,171.878C346.071,169.113 343.86,165.981 342.201,162.479C340.543,158.978 339.713,154.924 339.713,150.317C339.713,143.314 341.141,137.279 343.998,132.212C346.854,127.144 350.54,122.952 355.054,119.635C359.569,116.318 364.683,113.83 370.396,112.171C376.108,110.513 381.913,109.684 387.81,109.684C397.392,109.684 405.685,111.02 412.687,113.692C419.69,116.364 425.771,119.819 430.931,124.057L417.387,142.854C413.332,139.721 409.002,137.233 404.395,135.39C399.788,133.548 394.812,132.626 389.468,132.626C383.019,132.626 377.49,134.054 372.883,136.911C368.276,139.767 365.973,143.775 365.973,148.935C365.973,153.358 368.23,156.582 372.745,158.61C377.26,160.637 382.742,162.479 389.192,164.138C394.352,165.428 399.696,167.04 405.224,168.975C410.753,170.91 415.82,173.444 420.427,176.577C425.034,179.709 428.858,183.625 431.898,188.324C434.939,193.023 436.459,198.69 436.459,205.324C436.459,211.405 435.123,216.934 432.451,221.909C429.779,226.885 426.232,231.077 421.809,234.486C417.387,237.895 412.227,240.521 406.33,242.364C400.433,244.207 394.352,245.128 388.086,245.128C367.816,245.128 350.309,239.139 335.567,227.161L349.111,207.812Z" style="fill:white;fill-rule:nonzero;"/>
        </g>
        <g transform="matrix(1,0,0,1,-6.9985,-4)">
            <path d="M553.937,242.364C551.357,243.285 548.224,243.976 544.538,244.437C540.853,244.898 537.167,245.128 533.482,245.128C525.189,245.128 518.048,243.792 512.059,241.12C506.07,238.448 500.957,234.716 496.718,229.925C492.848,225.687 490.13,220.619 488.564,214.722C486.998,208.825 486.214,202.376 486.214,195.373L486.214,135.943L453.044,135.943L453.044,112.448L486.214,112.448L486.214,76.514L512.474,76.514L512.474,112.448L553.937,112.448L553.937,135.943L512.474,135.943L512.474,196.755C512.474,200.256 512.704,203.389 513.165,206.153C513.626,208.917 514.685,211.313 516.344,213.34C518.187,215.551 520.767,217.256 524.084,218.454C527.401,219.652 530.81,220.251 534.311,220.251C536.338,220.251 538.734,220.112 541.498,219.836C544.262,219.56 546.658,219.145 548.685,218.592L553.937,242.364Z" style="fill:white;fill-rule:nonzero;"/>
        </g>
        <g transform="matrix(1,0,0,1,-6.9985,-4)">
            <path d="M660.91,216.104C669.755,216.104 676.482,215.229 681.089,213.478C685.695,211.728 689.565,209.286 692.698,206.153C695.462,203.205 697.674,199.796 699.332,195.926C700.991,192.056 701.82,187.91 701.82,183.487C701.82,179.064 700.991,174.964 699.332,171.187C697.674,167.409 695.462,164.046 692.698,161.097C689.565,157.965 685.695,155.523 681.089,153.772C676.482,152.022 669.755,151.146 660.91,151.146L618.895,151.146L618.895,216.104L660.91,216.104ZM652.065,124.887C659.804,124.887 665.609,124.196 669.479,122.813C673.349,121.431 676.389,119.45 678.601,116.871C683.023,112.079 685.235,106.459 685.235,100.009C685.235,93.559 683.023,87.939 678.601,83.148C676.389,80.568 673.349,78.587 669.479,77.205C665.609,75.823 659.804,75.132 652.065,75.132L618.895,75.132L618.895,124.887L652.065,124.887ZM591.253,242.364C591.253,242.364 591.253,109.313 591.253,63.872C591.253,59.894 592.833,56.078 595.646,53.265C598.459,50.452 602.275,48.872 606.253,48.872C625.669,48.872 657.04,48.872 657.04,48.872C666.438,48.872 674.27,50.07 680.536,52.465C686.801,54.861 692.237,58.178 696.844,62.416C701.82,67.023 705.736,72.506 708.592,78.863C711.448,85.221 712.877,91.993 712.877,99.18C712.877,105.814 711.494,112.171 708.73,118.253C705.966,124.334 702.281,129.494 697.674,133.732C706.887,138.339 714.489,145.203 720.478,154.325C726.467,163.447 729.462,173.536 729.462,184.593C729.462,193.622 727.527,202.007 723.657,209.747C719.787,217.486 714.627,224.028 708.177,229.372C703.202,233.611 697.397,236.836 690.763,239.047C684.129,241.258 675.837,242.364 665.886,242.364L591.253,242.364Z" style="fill:white;fill-rule:nonzero;"/>
        </g>
        <g transform="matrix(1,0,0,1,-6.9985,-4)">
            <path d="M755.721,177.406C755.721,167.823 757.426,158.886 760.835,150.593C764.244,142.301 768.943,135.114 774.932,129.033C780.921,122.952 788.016,118.207 796.216,114.797C804.417,111.388 813.308,109.684 822.891,109.684C832.473,109.684 841.364,111.388 849.565,114.797C857.765,118.207 864.86,122.952 870.849,129.033C876.838,135.114 881.537,142.301 884.946,150.593C888.355,158.886 890.06,167.823 890.06,177.406C890.06,187.173 888.355,196.156 884.946,204.357C881.537,212.557 876.838,219.698 870.849,225.779C864.86,231.86 857.765,236.605 849.565,240.014C841.364,243.424 832.473,245.128 822.891,245.128C813.308,245.128 804.417,243.424 796.216,240.014C788.016,236.605 780.921,231.86 774.932,225.779C768.943,219.698 764.244,212.557 760.835,204.357C757.426,196.156 755.721,187.173 755.721,177.406ZM781.981,177.406C781.981,183.303 782.994,188.877 785.021,194.129C787.048,199.381 789.859,203.942 793.452,207.812C797.046,211.682 801.33,214.722 806.306,216.934C811.281,219.145 816.809,220.251 822.891,220.251C828.972,220.251 834.5,219.145 839.476,216.934C844.451,214.722 848.736,211.682 852.329,207.812C855.922,203.942 858.733,199.381 860.76,194.129C862.787,188.877 863.8,183.303 863.8,177.406C863.8,171.509 862.787,165.935 860.76,160.683C858.733,155.431 855.922,150.87 852.329,147C848.736,143.13 844.451,140.09 839.476,137.878C834.5,135.667 828.972,134.561 822.891,134.561C816.809,134.561 811.281,135.667 806.306,137.878C801.33,140.09 797.046,143.13 793.452,147C789.859,150.87 787.048,155.431 785.021,160.683C782.994,165.935 781.981,171.509 781.981,177.406Z" style="fill:white;fill-rule:nonzero;"/>
        </g>
        <g transform="matrix(1,0,0,1,-6.9985,-4)">
            <path d="M914.937,177.406C914.937,167.823 916.642,158.886 920.051,150.593C923.46,142.301 928.159,135.114 934.148,129.033C940.138,122.952 947.232,118.207 955.433,114.797C963.633,111.388 972.524,109.684 982.107,109.684C991.689,109.684 1000.58,111.388 1008.78,114.797C1016.98,118.207 1024.08,122.952 1030.07,129.033C1036.05,135.114 1040.75,142.301 1044.16,150.593C1047.57,158.886 1049.28,167.823 1049.28,177.406C1049.28,187.173 1047.57,196.156 1044.16,204.357C1040.75,212.557 1036.05,219.698 1030.07,225.779C1024.08,231.86 1016.98,236.605 1008.78,240.014C1000.58,243.424 991.689,245.128 982.107,245.128C972.524,245.128 963.633,243.424 955.433,240.014C947.232,236.605 940.138,231.86 934.148,225.779C928.159,219.698 923.46,212.557 920.051,204.357C916.642,196.156 914.937,187.173 914.937,177.406ZM941.197,177.406C941.197,183.303 942.211,188.877 944.238,194.129C946.265,199.381 949.075,203.942 952.668,207.812C956.262,211.682 960.546,214.722 965.522,216.934C970.497,219.145 976.026,220.251 982.107,220.251C988.188,220.251 993.716,219.145 998.692,216.934C1003.67,214.722 1007.95,211.682 1011.55,207.812C1015.14,203.942 1017.95,199.381 1019.98,194.129C1022,188.877 1023.02,183.303 1023.02,177.406C1023.02,171.509 1022,165.935 1019.98,160.683C1017.95,155.431 1015.14,150.87 1011.55,147C1007.95,143.13 1003.67,140.09 998.692,137.878C993.716,135.667 988.188,134.561 982.107,134.561C976.026,134.561 970.497,135.667 965.522,137.878C960.546,140.09 956.262,143.13 952.668,147C949.075,150.87 946.265,155.431 944.238,160.683C942.211,165.935 941.197,171.509 941.197,177.406Z" style="fill:white;fill-rule:nonzero;"/>
        </g>
        <g transform="matrix(1,0,0,1,-6.9985,-4)">
            <path d="M1086.59,63.872C1086.59,55.588 1093.31,48.872 1101.59,48.872C1108.09,48.872 1114.23,48.872 1114.23,48.872L1114.23,130.415L1193.84,48.872C1193.84,48.872 1207.84,48.872 1218.49,48.872C1220.5,48.872 1222.32,50.075 1223.1,51.926C1223.88,53.777 1223.48,55.917 1222.08,57.358C1200.31,79.747 1142.98,138.707 1142.98,138.707C1142.98,138.707 1206.32,209.403 1228.38,234.027C1229.7,235.497 1230.03,237.602 1229.23,239.403C1228.42,241.204 1226.63,242.364 1224.66,242.364C1214.3,242.364 1200.47,242.364 1200.47,242.364L1114.23,145.618L1114.23,242.364L1086.59,242.364C1086.59,242.364 1086.59,109.313 1086.59,63.872Z" style="fill:white;fill-rule:nonzero;"/>
        </g>
    </g>
</svg>
